<?xml version="1.0" encoding="UTF-8" standalone="no"?> <svg width="512" height="512" viewBox="0 0 512 512" fill="none" xmlns="http://www.w3.org/2000/svg">
<path d="M336 80H304C295.513 80 287.374 76.6286 281.373 70.6274C275.371 64.6263 272 56.4869 272 48C272 39.5131 275.371 31.3737 281.373 25.3726C287.374 19.3714 295.513 16 304 16H376C378.122 16 380.157 16.8429 381.657 18.3431C383.157 19.8434 384 21.8783 384 24C384 26.1217 383.157 28.1566 381.657 29.6569C380.157 31.1571 378.122 32 376 32H304C299.757 32 295.687 33.6857 292.686 36.6863C289.686 39.6869 288 43.7565 288 48C288 52.2435 289.686 56.3131 292.686 59.3137C295.687 62.3143 299.757 64 304 64H336C338.122 64 340.157 64.8429 341.657 66.3431C343.157 67.8434 344 69.8783 344 72C344 74.1217 343.157 76.1566 341.657 77.6569C340.157 79.1571 338.122 80 336 80Z" fill="#C7463B"/>
<path d="M394.051 196.242L380.618 192.68L393.398 181.391C394.202 180.7 394.86 179.857 395.335 178.91C395.81 177.962 396.092 176.93 396.164 175.873C396.237 174.816 396.099 173.755 395.758 172.751C395.418 171.748 394.881 170.822 394.179 170.028C393.478 169.234 392.626 168.587 391.672 168.125C390.718 167.663 389.683 167.395 388.624 167.336C387.566 167.278 386.507 167.43 385.509 167.784C384.51 168.139 383.592 168.688 382.807 169.4L370.026 180.689L368.149 166.92C368.012 165.875 367.67 164.866 367.143 163.953C366.615 163.041 365.912 162.241 365.075 161.601C364.237 160.96 363.281 160.492 362.262 160.222C361.243 159.953 360.18 159.887 359.135 160.03C358.091 160.172 357.084 160.52 356.174 161.052C355.265 161.585 354.469 162.292 353.833 163.134C353.198 163.975 352.735 164.934 352.471 165.954C352.207 166.975 352.148 168.038 352.296 169.082L356.196 197.662C356.409 199.227 357.081 200.693 358.127 201.877C359.173 203.061 360.545 203.908 362.072 204.313L389.953 211.708C391.996 212.229 394.162 211.922 395.98 210.854C397.798 209.786 399.121 208.044 399.661 206.006C400.202 203.968 399.915 201.799 398.865 199.971C397.815 198.143 396.086 196.803 394.053 196.243L394.051 196.242Z" fill="#05B093"/>
<path d="M319.351 278.822L256 248L318.951 193.782C322.101 191 325.767 188.865 329.742 187.501C333.717 186.136 337.921 185.567 342.115 185.827C346.31 186.087 350.412 187.171 354.187 189.016C357.963 190.861 361.338 193.432 364.12 196.582V196.582C369.738 202.943 372.6 211.275 372.075 219.746C371.549 228.217 367.681 236.132 361.32 241.75L319.351 278.822Z" fill="#FD9226"/>
<path d="M327.437 247.651C325.569 247.649 323.761 246.993 322.326 245.798C320.89 244.603 319.919 242.943 319.579 241.106L311.085 195.238C310.719 193.16 311.188 191.022 312.391 189.288C313.593 187.555 315.432 186.366 317.507 185.982C319.582 185.598 321.724 186.049 323.468 187.237C325.211 188.425 326.415 190.254 326.817 192.325L335.317 238.193C335.53 239.348 335.486 240.536 335.189 241.672C334.891 242.808 334.347 243.865 333.596 244.767C332.844 245.67 331.904 246.396 330.84 246.894C329.777 247.393 328.616 247.651 327.442 247.651H327.437Z" fill="#E78244"/>
<path d="M56 452V488H88V456H424V488H456V452C456 444.574 453.05 437.452 447.799 432.201C442.548 426.95 435.426 424 428 424H84C76.5739 424 69.452 426.95 64.201 432.201C58.95 437.452 56 444.574 56 452V452Z" fill="#C3C3C3"/>
<path d="M104 264H408V378C408 384.041 406.81 390.022 404.498 395.603C402.187 401.184 398.798 406.255 394.527 410.527C390.255 414.798 385.184 418.187 379.603 420.498C374.022 422.81 368.041 424 362 424H150C137.8 424 126.1 419.154 117.473 410.527C108.846 401.9 104 390.2 104 378V264Z" fill="#0C82ED"/>
<path d="M302.78 464.41C302.781 471.01 301.244 477.518 298.29 483.42L296 488H224L214.42 454.48C212.452 447.592 212.256 440.32 213.848 433.336C215.441 426.352 218.771 419.884 223.53 414.53L267.05 365.57L272 360L278.19 409.52C279.363 418.906 283.631 427.632 290.32 434.32C294.272 438.271 297.407 442.962 299.545 448.125C301.683 453.288 302.782 458.822 302.78 464.41V464.41Z" fill="#FBB540"/>
<path d="M224 488H160L158.74 482.96C154.372 465.486 155.256 447.112 161.283 430.138C167.309 413.165 178.21 398.347 192.62 387.54L200.47 381.65L208 376L201.89 394.33C196.516 410.457 195.738 427.761 199.643 444.305C203.548 460.849 211.982 475.979 224 488V488Z" fill="#FBB540"/>
<path d="M360 488H296L304.97 477.23C314.081 466.299 319.632 452.844 320.88 438.668C322.127 424.493 319.012 410.275 311.95 397.92L306.95 389.16L304 384L331.76 400.65C346.233 409.335 357.068 422.969 362.26 439.029C367.453 455.089 366.65 472.487 360 488V488Z" fill="#FBB540"/>
<path d="M297.13 464.42C297.13 471.016 295.592 477.522 292.64 483.42L290.35 488H224L214.42 454.48C212.452 447.593 212.256 440.32 213.848 433.336C215.441 426.352 218.771 419.884 223.53 414.53L267.05 365.57L272.54 409.52C273.713 418.906 277.981 427.632 284.67 434.32C288.623 438.272 291.758 442.965 293.896 448.13C296.034 453.295 297.133 458.83 297.13 464.42V464.42Z" fill="#F55648"/>
<path d="M218.35 488H160L158.74 482.96C154.372 465.486 155.256 447.112 161.283 430.138C167.309 413.165 178.21 398.347 192.62 387.54L200.47 381.65L196.24 394.33C190.861 410.456 190.081 427.762 193.986 444.307C197.891 460.851 206.328 475.981 218.35 488V488Z" fill="#F55648"/>
<path d="M354.35 488H296L304.97 477.23C314.081 466.299 319.632 452.844 320.88 438.668C322.127 424.493 319.012 410.275 311.95 397.92L306.95 389.16L326.1 400.65C340.573 409.334 351.41 422.968 356.604 439.028C361.798 455.088 360.997 472.485 354.35 488V488Z" fill="#F55648"/>
<path d="M408 232H104C95.1634 232 88 239.163 88 248C88 256.837 95.1634 264 104 264H408C416.837 264 424 256.837 424 248C424 239.163 416.837 232 408 232Z" fill="#C3C3C3"/>
<path d="M104 320H80L72 296H40V264H104V320Z" fill="#C3C3C3"/>
<path d="M408 320H432L440 296H472V264H408V320Z" fill="#C3C3C3"/>
<path d="M272 136H240V168H272V136Z" fill="#FFAE96"/>
<path d="M272 104H240C231.163 104 224 111.163 224 120C224 128.837 231.163 136 240 136H272C280.837 136 288 128.837 288 120C288 111.163 280.837 104 272 104Z" fill="#C36F53"/>
<path d="M328 64L345.591 93.319C347.546 96.5767 350.311 99.2727 353.617 101.144C356.923 103.016 360.657 104 364.456 104H400V136H444C449.304 136 454.391 133.893 458.142 130.142C461.893 126.391 464 121.304 464 116V84C464 78.6957 461.893 73.6086 458.142 69.8579C454.391 66.1071 449.304 64 444 64H328Z" fill="#DC4D41"/>
<path d="M464 88V116C464.002 119.596 463.033 123.125 461.196 126.216C459.358 129.307 456.72 131.844 453.56 133.56L424 104L464 88Z" fill="#DC4D41"/>
<path d="M400 136H360L376 120L364.456 104H400V136Z" fill="#C7463B"/>
<path d="M424 64H392V104H424V64Z" fill="#C7463B"/>
<path d="M464 88V116C464.002 119.596 463.033 123.125 461.196 126.216C459.358 129.307 456.72 131.844 453.56 133.56L424 104L464 88Z" fill="#C7463B"/>
<path d="M368 86C371.314 86 374 83.3137 374 80C374 76.6863 371.314 74 368 74C364.686 74 362 76.6863 362 80C362 83.3137 364.686 86 368 86Z" fill="#C7463B"/>
<path d="M68.1328 37.3446C77.324 28.5364 89.6378 23.7402 102.365 24.011C115.093 24.2818 127.191 29.5976 136 38.7888L66.6887 105.212C57.8805 96.0203 53.0842 83.7065 53.355 70.979C53.6259 58.2515 58.9416 46.1529 68.1328 37.3446V37.3446Z" fill="#DC4D41"/>
<path d="M84.7389 54.6719C89.3345 50.2678 95.4914 47.8697 101.855 48.0051C108.219 48.1405 114.268 50.7984 118.672 55.394V55.394L84.0168 88.6053C79.6127 84.0097 77.2146 77.8528 77.35 71.4891C77.4854 65.1253 80.1433 59.076 84.7389 54.6719V54.6719Z" fill="#F55648"/>
<path d="M133.447 196.429L125.522 193.51C115.434 189.794 106.58 183.341 99.9532 174.876C93.326 166.411 89.187 156.268 88 145.583V145.583C95.8357 138.223 105.566 133.189 116.101 131.048C126.636 128.906 137.559 129.74 147.647 133.456L155.572 136.376C165.659 140.092 174.513 146.544 181.14 155.008C187.767 163.473 191.907 173.616 193.094 184.3V184.3C185.259 191.661 175.529 196.695 164.993 198.837C154.458 200.98 143.535 200.146 133.447 196.429V196.429Z" fill="#05B093"/>
<path d="M188.354 174.03L146.422 158.581L133.588 130.773C133.152 129.813 132.53 128.948 131.759 128.229C130.987 127.51 130.081 126.951 129.093 126.583C128.104 126.216 127.053 126.047 125.999 126.088C124.945 126.128 123.909 126.376 122.952 126.818C121.994 127.26 121.134 127.887 120.419 128.663C119.705 129.439 119.151 130.348 118.789 131.339C118.428 132.329 118.266 133.382 118.312 134.435C118.359 135.489 118.613 136.523 119.061 137.478L125.19 150.759L90.7661 138.076C89.7803 137.713 88.7326 137.547 87.6828 137.589C86.633 137.631 85.6017 137.879 84.6477 138.319C83.6938 138.759 82.8359 139.383 82.1231 140.155C81.4102 140.926 80.8563 141.831 80.4931 142.817C80.1299 143.803 79.9644 144.851 80.0061 145.9C80.0477 146.95 80.2958 147.981 80.736 148.935C81.1763 149.889 81.8001 150.747 82.5719 151.46C83.3437 152.173 84.2483 152.727 85.2341 153.09L146.834 175.79L128.516 190.13C127.689 190.778 126.997 191.582 126.481 192.497C125.964 193.412 125.633 194.419 125.506 195.462C125.379 196.505 125.458 197.563 125.74 198.575C126.022 199.587 126.5 200.534 127.148 201.361C127.795 202.189 128.599 202.88 129.514 203.397C130.429 203.913 131.437 204.245 132.48 204.372C133.523 204.499 134.581 204.419 135.593 204.138C136.605 203.856 137.552 203.378 138.379 202.73L164.487 182.289L182.822 189.044C183.809 189.413 184.86 189.584 185.913 189.547C186.966 189.509 188.002 189.263 188.96 188.824C189.918 188.385 190.78 187.761 191.496 186.987C192.213 186.214 192.769 185.307 193.133 184.318C193.498 183.329 193.663 182.277 193.62 181.224C193.577 180.171 193.326 179.137 192.882 178.181C192.438 177.225 191.809 176.366 191.032 175.654C190.255 174.942 189.345 174.39 188.354 174.031V174.03Z" fill="#03816B"/>
<path d="M232 184H216V200H232V184Z" fill="#C1E3F7"/>
<path d="M56 152H40V168H56V152Z" fill="#569FE6"/>
<path d="M88 192H72V208H88V192Z" fill="#C1E3F7"/>
<path d="M200 120H184V136H200V120Z" fill="#569FE6"/>
<path d="M144 88H128V104H144V88Z" fill="#C1E3F7"/>
<path d="M440 176H424V192H440V176Z" fill="#C1E3F7"/>
<path d="M336 136H320V152H336V136Z" fill="#569FE6"/>
<path d="M312 160H296V176H312V160Z" fill="#C1E3F7"/>
<path d="M264 192H248V208H264V192Z" fill="#569FE6"/>
<path d="M168 304H104V320H168V304Z" fill="#009CF7"/>
<path d="M232 304H184V320H232V304Z" fill="#009CF7"/>
<path d="M192 344H104V360H192V344Z" fill="#009CF7"/>
<path d="M232 344H208V360H232V344Z" fill="#009CF7"/>
<path d="M104 264H88V320H104V264Z" fill="#A8A8A8"/>
<path d="M424 264H408V320H424V264Z" fill="#A8A8A8"/>
<path d="M408 264H104V280H408V264Z" fill="#0A71CD"/>
</svg>
