<?xml version="1.0" encoding="UTF-8"?>
<!DOCTYPE svg PUBLIC "-//W3C//DTD SVG 1.1//EN" "http://www.w3.org/Graphics/SVG/1.1/DTD/svg11.dtd">
<!-- Creator: CorelDRAW -->
<svg xmlns="http://www.w3.org/2000/svg" xml:space="preserve" width="1.99999in" height="1.99999in" version="1.1" style="shape-rendering:geometricPrecision; text-rendering:geometricPrecision; image-rendering:optimizeQuality; fill-rule:evenodd; clip-rule:evenodd"
viewBox="0 0 2000 2000"
 xmlns:xlink="http://www.w3.org/1999/xlink">
 <defs>
  <style type="text/css">
   <![CDATA[
    .fil4 {fill:#A6A6A6}
    .fil2 {fill:#A85444}
    .fil3 {fill:#BB5D4C}
    .fil1 {fill:#C26D5E}
    .fil0 {fill:#CCCCCC}
   ]]>
  </style>
 </defs>
 <g id="Layer_x0020_1">
  <metadata id="CorelCorpID_0Corel-Layer"/>
  <g id="_301723040">
   <g>
    <path class="fil0" d="M1472 662c-12,0 -23,-11 -23,-24l0 -290c0,-13 11,-24 23,-24 13,0 24,11 24,24l0 290c0,13 -11,24 -24,24z"/>
    <path class="fil1" d="M1472 913c-82,0 -149,-67 -149,-149 0,-82 67,-149 149,-149 83,0 150,67 150,149 0,82 -67,149 -150,149z"/>
    <path class="fil1" d="M1472 1498c-82,0 -149,-67 -149,-149 0,-82 67,-149 149,-149 83,0 150,67 150,149 -1,82 -67,149 -150,149z"/>
    <path class="fil2" d="M1556 1247l-167 0c-59,0 -107,-48 -107,-107 0,-59 48,-107 107,-107l167 0c59,0 106,48 106,107 0,59 -47,107 -106,107z"/>
    <path class="fil3" d="M1556 1080l-167 0c-59,0 -107,-48 -107,-107 0,-59 48,-106 107,-106l167 0c59,0 106,48 106,106 0,59 -47,107 -106,107z"/>
   </g>
   <g>
    <path class="fil0" d="M1000 662c-13,0 -23,-11 -23,-24l0 -290c0,-13 10,-24 23,-24 13,0 23,11 23,24l0 290c0,13 -10,24 -23,24z"/>
    <path class="fil1" d="M1000 913c-82,0 -149,-67 -149,-149 0,-82 67,-149 149,-149 82,0 149,67 149,149 0,82 -67,149 -149,149z"/>
    <path class="fil1" d="M1000 1498c-82,0 -149,-67 -149,-149 0,-82 67,-149 149,-149 82,0 149,67 149,149 0,82 -67,149 -149,149z"/>
    <path class="fil2" d="M1083 1247l-166 0c-59,0 -107,-48 -107,-107 0,-59 48,-107 107,-107l166 0c59,0 107,48 107,107 0,59 -48,107 -107,107z"/>
    <path class="fil3" d="M1083 1080l-166 0c-59,0 -107,-48 -107,-107 0,-59 48,-106 107,-106l166 0c59,0 107,48 107,106 0,59 -48,107 -107,107z"/>
   </g>
   <g>
    <path class="fil0" d="M528 662c-13,0 -24,-11 -24,-24l0 -290c0,-13 11,-24 24,-24 13,0 23,11 23,24l0 290c0,13 -11,24 -23,24z"/>
    <path class="fil1" d="M528 913c-83,0 -149,-67 -149,-149 0,-82 66,-149 149,-149 82,0 149,67 149,149 0,82 -67,149 -149,149z"/>
    <path class="fil1" d="M528 1498c-83,0 -149,-67 -149,-149 0,-82 66,-149 149,-149 82,0 149,67 149,149 0,82 -67,149 -149,149z"/>
    <path class="fil2" d="M611 1247l-167 0c-59,0 -106,-48 -106,-107 0,-59 47,-107 106,-107l167 0c59,0 107,48 107,107 0,59 -48,107 -107,107z"/>
    <path class="fil3" d="M611 1080l-167 0c-59,0 -106,-48 -106,-107 0,-59 47,-106 106,-106l167 0c59,0 107,48 107,106 0,59 -48,107 -107,107z"/>
   </g>
   <path class="fil4" d="M1675 1676l-1350 0c-62,0 -112,-50 -112,-112l0 -89c0,-13 10,-24 23,-24l1528 0c13,0 23,11 23,24l0 89c0,61 -50,112 -112,112z"/>
   <path class="fil0" d="M1830 1498l-1660 0c-13,0 -23,-10 -23,-23 0,-13 10,-24 23,-24l1660 0c13,0 23,11 23,24 0,13 -10,23 -23,23z"/>
  </g>
 </g>
</svg>
