<?xml version="1.0" encoding="UTF-8" standalone="no"?> <svg xmlns="http://www.w3.org/2000/svg" viewBox="0 0 64 64"><g id="Layer_15" data-name="Layer 15"><path d="M33.457,14.509A23.926,23.926,0,0,0,31,2h0A72.524,72.524,0,0,1,10.483,29.059L8.842,30.4A18.653,18.653,0,0,0,2,44.84H2a21.865,21.865,0,0,0,2.307,9.775h0A9.532,9.532,0,0,0,6.1,57.1h0A16.746,16.746,0,0,0,17.937,62h0a16.747,16.747,0,0,0,10.721-3.882L36,52,62,30a28.1,28.1,0,0,0-3.223.7A78.572,78.572,0,0,1,48.62,32.517Z" style="fill:#487941"/><path d="M28.658,58.118,36,52,62,30a28.1,28.1,0,0,0-3.223.7A78.6,78.6,0,0,1,48.62,32.517L33.457,14.509a23.9,23.9,0,0,0-.709-7.842A72.518,72.518,0,0,1,14.483,29.059L12.842,30.4A18.653,18.653,0,0,0,6,44.84a21.865,21.865,0,0,0,2.307,9.775A9.559,9.559,0,0,0,10.1,57.1a16.736,16.736,0,0,0,9.837,4.771A16.732,16.732,0,0,0,28.658,58.118Z" style="fill:#548a4b"/><path d="M49.759,36.443a36.968,36.968,0,0,1-14.374,4.143A44.513,44.513,0,0,0,5.087,55.9,9.543,9.543,0,0,0,6.1,57.1a16.746,16.746,0,0,0,22.563,1.023L36,52,62,30Z" style="fill:#609b57"/><path d="M35.385,40.586A44.506,44.506,0,0,0,7.934,52.9c.057.061.1.132.161.191a16.746,16.746,0,0,0,22.563,1.023L38,48,54.785,33.8l-5.026,2.646A36.968,36.968,0,0,1,35.385,40.586Z" style="fill:#6aa962"/><path d="M33.46,14.51l-2.99,1.96-4.23,2.77-.1-.1c.17-.36.36-.72.55-1.07a34.882,34.882,0,0,0,2.65-6.27,35.425,35.425,0,0,0,1.35-6.69L31,2A23.946,23.946,0,0,1,33.46,14.51Z" style="fill:#3c6634"/><path d="M59,12.85a7.817,7.817,0,0,1-1.1,4L48.62,32.52l-3.55,5.99c-.75.27-1.52.52-2.29.74a36.817,36.817,0,0,1-7.4,1.34,44.407,44.407,0,0,0-19.01,5.93l4.09-7.72a26.936,26.936,0,0,0,3.03-10.21,27.179,27.179,0,0,1,2.54-9.22l7.43-4.86,11.9-7.79A10.609,10.609,0,0,1,51.15,5,7.853,7.853,0,0,1,59,12.85Z" style="fill:#f7c966"/><path d="M52.78,8a10.609,10.609,0,0,0-5.79,1.72l-11.9,7.79-2.171,1.42a17.124,17.124,0,0,0-7.79,12.564l-.009.1A26.936,26.936,0,0,1,22.09,41.8l-1.3,2.463a44.466,44.466,0,0,1,14.6-3.673,36.817,36.817,0,0,0,7.4-1.34c.77-.22,1.54-.47,2.29-.74l3.55-5.99L57.9,16.85a7.789,7.789,0,0,0,.8-6.149c-.119-.136-.237-.273-.365-.4A7.822,7.822,0,0,0,52.78,8Z" style="fill:#fdd790"/><path d="M62,30,49.76,36.44a36.187,36.187,0,0,1-4.37,1.95l-.16-.16,2.61-4.39.78-1.32a79.836,79.836,0,0,0,10.16-1.83A28.024,28.024,0,0,1,62,30Z" style="fill:#3c6634"/><path d="M56.848,13.434,58.7,10.707a7.815,7.815,0,0,0-.969-2.134L55.409,12l-.95-.95,2.908-2.974a7.036,7.036,0,0,0-1.411-1.417L53.045,9.631l-.8-.8,3.3-2.484a7.825,7.825,0,0,0-2.025-.98L50.815,7.4,48.723,5.309a10.607,10.607,0,0,0-2.11.718L49.2,8.616l-2.381,1.791L44.015,7.6,42.305,8.72l2.9,2.9-2.381,1.791L39.784,10.37l-1.709,1.119,3.137,3.138-2.38,1.791L35.554,13.14l-1.71,1.118,3.374,3.374-2.381,1.791-3.515-3.515-1.709,1.119,3.61,3.61-2.38,1.792L27.09,18.676l-1.06.694c-.118.247-.21.5-.32.754l3.519,3.519-2.381,1.791-2.27-2.27q-.337,1.113-.579,2.249l1.235,1.235-1.647,1.24c-.028.235-.075.466-.1.7a26.953,26.953,0,0,1-.423,2.891l4.353,4.353-2.062,2.109-3.173-3.172q-.349,1.038-.783,2.045l2.557,2.557-6.3,6.44A44.338,44.338,0,0,1,22.77,43.45l2.6-2.662,1.354,1.353q1.12-.315,2.257-.571l-2.212-2.212,2.062-2.11L32.5,40.914q1.263-.18,2.54-.288l-4.807-4.807,2.062-2.11L37.3,38.717l-1.22,1.8q1.335-.127,2.652-.35l.007-.011.009.009c.79-.136,1.574-.292,2.351-.478l-1.217-1.217,1.685-2.487,2.763,2.764c.245-.082.5-.151.737-.238l.69-1.164L42.712,34.3,44.4,31.811l2.915,2.915,1.053-1.776L45.54,30.125l1.684-2.487,2.693,2.693,1.051-1.777-2.6-2.6,1.685-2.487,2.468,2.468,1.052-1.776L51.194,21.78l1.685-2.487,2.245,2.245,1.052-1.776-2.155-2.155,1.685-2.487,2.021,2.021.173-.291a7.822,7.822,0,0,0,.722-1.643Zm-6.218-3.39,1.016,1.016-2.062,2.11-1.335-1.335Zm-4,3,1.55,1.551-2.062,2.109-1.868-1.868Zm-3.994,3.006,2.084,2.084-2.063,2.109-2.4-2.4Zm-3.995,3,2.618,2.618L39.2,23.787l-2.935-2.935Zm-3.994,3.006L37.8,25.217,35.74,27.326l-3.469-3.469ZM28.818,34.4l-4.536-4.536,2.381-1.791L30.881,32.3Zm3.461-3.539-4-4,2.38-1.792,3.685,3.685Zm6.166,6.167L33.693,32.28l2.063-2.11,4.374,4.375Zm2.827-4.173L37.154,28.74l2.063-2.109,3.741,3.74ZM44.1,28.685,40.615,25.2l2.063-2.109L45.785,26.2Zm2.827-4.172-2.851-2.851,2.063-2.109,2.473,2.473Zm2.827-4.173-2.217-2.217L49.6,16.014l1.839,1.839Zm2.827-4.173L51,14.584l2.063-2.109,1.2,1.205Z" style="fill:#f9b542"/></g></svg>